<mxfile host="app.diagrams.net" modified="2023-08-04T11:13:33.005Z" agent="Mozilla/5.0 (Macintosh; Intel Mac OS X 10_15_7) AppleWebKit/537.36 (KHTML, like Gecko) Chrome/115.0.0.0 Safari/537.36" version="21.6.5" etag="CN2JSmEar2Cif-9Rha-Y" type="github">
  <diagram name="Page-1" id="fb-ke4w2TgM7OqY5ZSHG">
    <mxGraphModel>
      <root>
        <mxCell id="0" />
        <mxCell id="1" parent="0" />
      </root>
    </mxGraphModel>
  </diagram>
</mxfile>
